
<svg xmlns="http://www.w3.org/2000/svg" viewBox="0 0 14 14">
  <defs>
    <linearGradient id="a" x1="-.007%" x2="99.976%" y1="49.957%" y2="49.957%">
      <stop offset="0%" stop-color="#043DE2"/>
      <stop offset="100%" stop-color="#1257E0"/>
    </linearGradient>
    <linearGradient id="b" x1="100.758%" x2="3.774%" y1="2.966%" y2="102.451%">
      <stop offset="0%" stop-color="#F400AB"/>
      <stop offset="100%" stop-color="#AA01E1"/>
    </linearGradient>
  </defs>
  <g fill="none">
    <path fill="url(#a)" d="M13.124 5.185c-.112-.095-.893-.63-1.915-.553-1.701-.25-1.907-1.884-1.907-1.884L2.74 9.394c1.71.302 1.958 2.005 1.958 2.005l.009-.009c0 2.273 1.846 2.575 2.302 2.575h.094s1.09-.017 1.752-.812c.558-.665.464-1.642.464-2.057 0-.5.455-1.607 1.237-1.685 1.615-.095 1.967-.233 2.353-.458.387-.225.945-.665 1.005-1.806a2.517 2.517 0 00-.79-1.962z"/>
    <path fill="url(#b)" d="M6.906.026S5.815.043 5.153.838c-.558.666-.463 1.642-.463 2.057 0 .501-.413 1.677-1.237 1.728-1.598 0-2.07.173-2.457.407-.386.233-.902.613-.953 1.814-.052 1.141.696 1.824.842 1.954.146.13 1.331 1.071 2.98.267 1.632-.803 3.178-2.333 3.178-2.333s2.036-1.694 2.25-3.75C9.508.345 7.473.016 7 .016c-.06.009-.094.009-.094.009"/>
  </g>
</svg>